<?xml version="1.0" standalone="no"?>
<!DOCTYPE svg PUBLIC "-//W3C//DTD SVG 20010904//EN"
 "http://www.w3.org/TR/2001/REC-SVG-20010904/DTD/svg10.dtd">
<svg version="1.0" xmlns="http://www.w3.org/2000/svg"
 width="350.000000pt" height="175.000000pt" viewBox="0 0 350.000000 175.000000"
 preserveAspectRatio="xMidYMid meet">
<metadata>
Created by potrace 1.14, written by Peter Selinger 2001-2017
</metadata>
<g transform="translate(0.000000,175.000000) scale(0.100000,-0.100000)"
fill="#009483" stroke="none">
<path d="M0 875 l0 -875 1750 0 1750 0 0 875 0 875 -1750 0 -1750 0 0 -875z
m1017 613 c-4 -13 -51 -237 -107 -498 -85 -402 -106 -486 -136 -547 -60 -124
-141 -173 -285 -173 -85 0 -122 10 -157 43 -40 37 -55 78 -56 143 0 112 60
174 170 174 35 0 74 -5 88 -11 31 -14 48 -61 40 -106 l-6 -33 -33 20 c-44 27
-71 25 -106 -9 -79 -79 17 -199 105 -130 35 28 49 78 161 589 53 239 98 441
100 449 6 16 -35 -8 -73 -43 -65 -58 -103 -181 -82 -264 6 -24 9 -46 7 -49
-13 -12 -95 13 -119 38 -25 24 -28 35 -28 89 0 79 31 141 101 204 97 87 218
135 343 135 76 1 78 0 73 -21z m340 -303 c19 -13 22 -13 27 0 4 12 26 15 107
15 100 0 101 0 96 -22 -3 -13 -27 -126 -53 -252 -50 -239 -50 -258 -6 -264 64
-10 89 41 141 293 23 110 45 210 48 223 5 21 10 22 104 22 92 0 99 -1 99 -20
l0 -20 37 20 c27 14 57 20 106 20 61 0 71 -3 96 -28 15 -15 30 -34 33 -42 4
-12 11 -9 34 12 85 80 237 76 282 -6 24 -45 20 -132 -12 -263 -28 -116 -34
-172 -22 -191 4 -7 21 -12 37 -12 47 0 76 39 84 113 19 182 104 335 217 391
61 31 169 36 205 11 19 -13 22 -13 27 0 4 12 24 15 91 15 l85 0 0 -78 c0 -50
-12 -133 -35 -242 -20 -91 -33 -175 -30 -187 4 -18 13 -23 35 -23 24 0 30 -4
30 -22 0 -30 -33 -83 -65 -104 -41 -27 -122 -15 -156 23 -14 17 -29 37 -31 44
-3 10 -16 4 -43 -20 -50 -43 -93 -61 -150 -61 -60 0 -106 20 -138 61 l-26 34
-38 -37 c-47 -45 -79 -58 -146 -58 -139 0 -184 93 -138 285 34 143 42 201 31
229 -14 38 -52 35 -84 -6 -30 -40 -44 -91 -92 -325 l-38 -183 -104 0 c-79 0
-103 3 -100 13 20 52 100 479 94 501 -14 57 -90 13 -114 -66 -6 -18 -30 -126
-54 -240 l-42 -208 -103 0 -103 0 6 24 6 24 -48 -24 c-90 -45 -214 -24 -230
41 -8 31 -15 31 -45 -1 -40 -43 -92 -64 -157 -64 -140 0 -202 112 -169 304 28
159 108 290 209 340 61 31 169 36 205 11z" />
<path d="M1253 1078 c-41 -42 -80 -128 -98 -215 -18 -82 -19 -120 -4 -161 13
-39 39 -48 79 -27 43 22 64 75 101 253 34 166 32 182 -20 182 -17 0 -38 -12
-58 -32z" />
<path d="M2913 1078 c-83 -86 -142 -334 -93 -393 20 -24 63 -18 92 13 35 36
40 50 78 230 35 166 33 182 -19 182 -17 0 -38 -12 -58 -32z" />
</g>
</svg>
